<?xml version="1.0" encoding="UTF-8" standalone="no"?>
<!-- Created with Inkscape (http://www.inkscape.org/) -->

<svg
   width="24"
   height="24"
   viewBox="0 0 6.3499996 6.3499996"
   version="1.1"
   id="svg5"
   inkscape:version="1.2.2 (b0a84865, 2022-12-01)"
   sodipodi:docname="gradient_thumb.svg"
   inkscape:export-filename="../textures/gradient_thumb.png"
   inkscape:export-xdpi="96"
   inkscape:export-ydpi="96"
   xmlns:inkscape="http://www.inkscape.org/namespaces/inkscape"
   xmlns:sodipodi="http://sodipodi.sourceforge.net/DTD/sodipodi-0.dtd"
   xmlns="http://www.w3.org/2000/svg"
   xmlns:svg="http://www.w3.org/2000/svg">
  <sodipodi:namedview
     id="namedview7"
     pagecolor="#717171"
     bordercolor="#666666"
     borderopacity="1.0"
     inkscape:showpageshadow="2"
     inkscape:pageopacity="0"
     inkscape:pagecheckerboard="0"
     inkscape:deskcolor="#d1d1d1"
     inkscape:document-units="mm"
     showgrid="true"
     inkscape:zoom="12.105668"
     inkscape:cx="8.2605933"
     inkscape:cy="19.164576"
     inkscape:window-width="1488"
     inkscape:window-height="866"
     inkscape:window-x="0"
     inkscape:window-y="38"
     inkscape:window-maximized="0"
     inkscape:current-layer="layer1">
    <inkscape:grid
       type="xygrid"
       id="grid132"
       originx="0"
       originy="0"
       color="#a2cfe5"
       opacity="0.0745098"
       empcolor="#afd3e5"
       empopacity="0.16078431" />
  </sodipodi:namedview>
  <defs
     id="defs2" />
  <g
     inkscape:label="Layer 1"
     inkscape:groupmode="layer"
     id="layer1">
    <path
       id="path350"
       style="stroke-width:0.264583;stroke-linecap:round;stroke-linejoin:round"
       d="M 3.175,0 C 1.4214959,0 0,1.4214959 0,3.175 0,4.9285041 1.4214959,6.35 3.175,6.35 4.9285041,6.35 6.35,4.9285041 6.35,3.175 6.35,1.4214959 4.9285041,0 3.175,0 Z m 0,0.52916667 c 1.4612534,0 2.6458333,1.18457993 2.6458333,2.64583333 0,1.4612534 -1.1845799,2.6458333 -2.6458333,2.6458333 C 1.7137466,5.8208333 0.52916667,4.6362534 0.52916667,3.175 0.52916665,1.7137466 1.7137466,0.52916665 3.175,0.52916667 Z"
       sodipodi:nodetypes="ssssssssss" />
    <path
       id="path1166"
       style="fill:#ffffff;stroke-width:0.264583;stroke-linecap:round;stroke-linejoin:round"
       d="M 3.175 0.52916667 A 2.6458333 2.6458333 0 0 0 0.52916667 3.175 A 2.6458333 2.6458333 0 0 0 3.175 5.8208333 A 2.6458333 2.6458333 0 0 0 5.8208333 3.175 A 2.6458333 2.6458333 0 0 0 3.175 0.52916667 z M 3.175 1.0583333 A 2.1166666 2.1166666 0 0 1 5.2916667 3.175 A 2.1166666 2.1166666 0 0 1 3.175 5.2916667 A 2.1166666 2.1166666 0 0 1 1.0583333 3.175 A 2.1166666 2.1166666 0 0 1 3.175 1.0583333 z " />
  </g>
</svg>
